<svg xmlns="http://www.w3.org/2000/svg" xmlns:xlink="http://www.w3.org/1999/xlink" viewBox="0 0 1024 1024" width="1024" height="1024">
<title>LASCIE</title>
<defs>
<radialGradient id="fond" cx="50%" cy="42%" r="72%"><stop offset="0" stop-color="#07101f"/><stop offset="1" stop-color="#000105"/></radialGradient>
<radialGradient id="halo" cx="512" cy="418" r="470" gradientUnits="userSpaceOnUse"><stop offset="0.3" stop-color="#0a7cff" stop-opacity="0.22"/><stop offset="1" stop-color="#0a7cff" stop-opacity="0"/></radialGradient>
<filter id="flou" x="-30%" y="-30%" width="160%" height="160%"><feGaussianBlur stdDeviation="16"/></filter>
<filter id="flou2" x="-30%" y="-30%" width="160%" height="160%"><feGaussianBlur stdDeviation="6"/></filter>
<linearGradient id="hexa" x1="0.2" y1="0" x2="0.8" y2="1"><stop offset="0" stop-color="#b9f3ff"/><stop offset="0.5" stop-color="#27b6ff"/><stop offset="1" stop-color="#1d6bff"/></linearGradient>
<linearGradient id="verre" x1="0" y1="0" x2="0" y2="1"><stop offset="0" stop-color="#0d2142"/><stop offset="1" stop-color="#050b18"/></linearGradient>
<linearGradient id="tube" x1="0" y1="0" x2="0" y2="1"><stop offset="0" stop-color="#ffffff"/><stop offset="1" stop-color="#bff1ff"/></linearGradient>
<path id="hex" d="M512 118L771.8 268L771.8 568L512 718L252.2 568L252.2 268Z"/>
<path id="L" d="M420.9 253L526.7 253L488 472.5L363.5 578.4ZM373.8 590.8L498.3 485L661 485L642.3 590.8Z"/>
</defs>
<rect width="1024" height="1024" fill="url(#fond)"/>
<circle cx="512" cy="418" r="470" fill="url(#halo)"/>
<use xlink:href="#hex" fill="url(#verre)"/>
<g filter="url(#flou)" opacity="0.95"><use xlink:href="#hex" fill="none" stroke="#1aa3ff" stroke-width="30" stroke-linejoin="round"/><use xlink:href="#L" fill="#1aa3ff"/></g>
<g filter="url(#flou2)"><use xlink:href="#hex" fill="none" stroke="#5fd4ff" stroke-width="16" stroke-linejoin="round"/><path d="M512 160L735.4 289L735.4 547L512 676L288.6 547L288.6 289Z" fill="none" stroke="#2a8cff" stroke-width="8" stroke-linejoin="round"/></g>
<use xlink:href="#hex" fill="none" stroke="url(#hexa)" stroke-width="12" stroke-linejoin="round"/>
<use xlink:href="#hex" fill="none" stroke="#e9fcff" stroke-width="4" stroke-linejoin="round"/>
<path d="M512 160L735.4 289L735.4 547L512 676L288.6 547L288.6 289Z" fill="none" stroke="#56b8ff" stroke-width="4" stroke-linejoin="round" stroke-opacity="0.9"/>
<use xlink:href="#L" fill="url(#tube)"/>
<path d="M12.5 0 14.1 -12.5V-92H44.1V-21.4H99.5L108.9 -1.7Q108.9 -1.1 104.7 -0.5Q100.4 0 90.1 0ZM128.9 0 174.8 -92H215.4L261.1 0H227.5L219.8 -16.7H170.4L161.8 0ZM179 -38.3H211.1L195.9 -71.7H194.3ZM311.4 0Q300.7 0 295.7 -0.9Q290.7 -1.9 290.7 -3.1L300.1 -23.3Q303.7 -22.7 315 -22.1Q326.2 -21.6 344.2 -21.6H356.6Q362.1 -21.6 363.9 -23.2Q365.8 -24.7 365.8 -27.7V-29.3Q365.8 -33 363.9 -34.4Q362.1 -35.8 356.6 -35.8H320.7Q304.9 -35.8 297.7 -41.7Q290.6 -47.6 290.6 -60.9V-66.5Q290.6 -73.4 293.1 -79.2Q295.7 -85 302 -88.5Q308.2 -92 319.2 -92H371.1Q380.7 -92 387 -90.9Q393.3 -89.8 393.3 -88.6L388.7 -69.2Q384.3 -69.6 372.1 -70.2Q360 -70.7 341.4 -70.7L330.1 -70.9Q325.3 -70.9 323.3 -69.5Q321.2 -68.2 321.1 -64.6V-63.5Q321.1 -59.9 323.3 -58.5Q325.4 -57.1 330.3 -57.1H364.7Q374.7 -57.1 381.8 -55.1Q388.8 -53 392.6 -47.6Q396.3 -42.2 396.3 -31.8V-26.1Q396.3 -14.4 390.3 -7.2Q384.3 0 369.4 0ZM467.2 0Q450.5 0 442.9 -7.4Q435.4 -14.7 435.4 -31.1V-59.8Q435.4 -76.7 443.7 -84.4Q452 -92.2 467.2 -92.2H512.9Q523.7 -92.2 529.4 -91Q535.1 -89.8 535.1 -88.6L530.3 -69Q526.3 -69.5 515 -70Q503.7 -70.6 486.4 -70.6H478.5Q471.1 -70.6 468.5 -67.8Q465.9 -65.1 465.9 -59.5V-32.7Q465.9 -27.4 468.2 -24.5Q470.5 -21.6 478.5 -21.6H484.9Q507.3 -21.6 519 -22.1Q530.7 -22.7 533.1 -23.3L542.6 -6.4Q542.6 -5.6 539.4 -4.1Q536.2 -2.5 528.6 -1.3Q521 0 507.6 0ZM577 0V-92H607.1V0ZM650.9 0V-92H751.3V-70.7H681.4V-57.7H733.2V-36H681.4V-21.4H748.8L758.2 -1.7Q758.2 -1.1 754 -0.5Q749.8 0 739.4 0Z" transform="translate(150.3 868) scale(0.9387)" fill="#1aa3ff" filter="url(#flou2)"/>
<path d="M12.5 0 14.1 -12.5V-92H44.1V-21.4H99.5L108.9 -1.7Q108.9 -1.1 104.7 -0.5Q100.4 0 90.1 0ZM128.9 0 174.8 -92H215.4L261.1 0H227.5L219.8 -16.7H170.4L161.8 0ZM179 -38.3H211.1L195.9 -71.7H194.3ZM311.4 0Q300.7 0 295.7 -0.9Q290.7 -1.9 290.7 -3.1L300.1 -23.3Q303.7 -22.7 315 -22.1Q326.2 -21.6 344.2 -21.6H356.6Q362.1 -21.6 363.9 -23.2Q365.8 -24.7 365.8 -27.7V-29.3Q365.8 -33 363.9 -34.4Q362.1 -35.8 356.6 -35.8H320.7Q304.9 -35.8 297.7 -41.7Q290.6 -47.6 290.6 -60.9V-66.5Q290.6 -73.4 293.1 -79.2Q295.7 -85 302 -88.5Q308.2 -92 319.2 -92H371.1Q380.7 -92 387 -90.9Q393.3 -89.8 393.3 -88.6L388.7 -69.2Q384.3 -69.6 372.1 -70.2Q360 -70.7 341.4 -70.7L330.1 -70.9Q325.3 -70.9 323.3 -69.5Q321.2 -68.2 321.1 -64.6V-63.5Q321.1 -59.9 323.3 -58.5Q325.4 -57.1 330.3 -57.1H364.7Q374.7 -57.1 381.8 -55.1Q388.8 -53 392.6 -47.6Q396.3 -42.2 396.3 -31.8V-26.1Q396.3 -14.4 390.3 -7.2Q384.3 0 369.4 0ZM467.2 0Q450.5 0 442.9 -7.4Q435.4 -14.7 435.4 -31.1V-59.8Q435.4 -76.7 443.7 -84.4Q452 -92.2 467.2 -92.2H512.9Q523.7 -92.2 529.4 -91Q535.1 -89.8 535.1 -88.6L530.3 -69Q526.3 -69.5 515 -70Q503.7 -70.6 486.4 -70.6H478.5Q471.1 -70.6 468.5 -67.8Q465.9 -65.1 465.9 -59.5V-32.7Q465.9 -27.4 468.2 -24.5Q470.5 -21.6 478.5 -21.6H484.9Q507.3 -21.6 519 -22.1Q530.7 -22.7 533.1 -23.3L542.6 -6.4Q542.6 -5.6 539.4 -4.1Q536.2 -2.5 528.6 -1.3Q521 0 507.6 0ZM577 0V-92H607.1V0ZM650.9 0V-92H751.3V-70.7H681.4V-57.7H733.2V-36H681.4V-21.4H748.8L758.2 -1.7Q758.2 -1.1 754 -0.5Q749.8 0 739.4 0Z" transform="translate(150.3 868) scale(0.9387)" fill="#ffffff"/>
<rect x="452" y="898" width="120" height="12" rx="6" fill="#39c2ff" filter="url(#flou2)"/>
<rect x="452" y="898" width="120" height="12" rx="6" fill="#bff1ff"/>
</svg>
